<svg width="25" height="22" viewBox="0 0 25 22" fill="none" xmlns="http://www.w3.org/2000/svg">
<path d="M9.54966 13.9L15.6497 2.9C15.7497 2.7 15.8497 2.6 15.8497 2.4C15.9497 2.3 15.9497 2.1 16.0497 2C16.1497 1.7 16.1497 1.3 15.9497 1C15.8497 0.7 15.6497 0.4 15.3497 0.3C15.1497 0 14.7497 0 14.4497 0C14.1497 0 13.8497 0.2 13.6497 0.4C13.5497 0.5 13.4497 0.6 13.3497 0.8C13.2497 0.9 13.1497 1.1 13.0497 1.2L12.6497 2L12.2497 1.3C12.1497 1.1 12.0497 1 11.9497 0.9C11.8497 0.8 11.7497 0.6 11.6497 0.5C11.4497 0.3 11.1497 0.1 10.8497 0.1C10.6497 0 10.2497 0 10.0497 0.2C9.74966 0.4 9.54966 0.6 9.34966 0.9C9.24966 1.2 9.24966 1.6 9.24966 1.9C9.24966 2.1 9.34966 2.2 9.44966 2.3C9.54966 2.5 9.64966 2.7 9.74966 2.8L10.9497 5.1L6.04966 13.9H2.74966C2.54966 13.9 2.44966 13.9 2.24966 13.9C2.04966 13.9 1.94966 13.9 1.84966 14C1.54966 14.1 1.24966 14.3 1.04966 14.5C0.849664 14.7 0.749664 15.1 0.749664 15.4C0.749664 15.7 0.849664 16.1 1.04966 16.3C1.24966 16.6 1.54966 16.8 1.84966 16.8C1.94966 16.8 2.14966 16.9 2.24966 16.9C2.44966 16.9 2.54966 16.9 2.74966 16.9H15.8497C15.8497 16.9 15.9497 16.8 15.9497 16.6C16.3497 15.2 15.3497 13.8 13.9497 13.8L9.54966 13.9ZM3.84966 17.5L3.04966 19C2.94966 19.2 2.84966 19.3 2.84966 19.5C2.74966 19.6 2.74966 19.7 2.64966 19.9C2.54966 20.2 2.54966 20.6 2.74966 20.9C2.84966 21.2 3.04966 21.5 3.34966 21.7C3.64966 21.9 3.94966 21.9 4.24966 21.9C4.54966 21.9 4.84966 21.7 5.04966 21.5C5.14966 21.4 5.24966 21.3 5.34966 21.1C5.44966 20.9 5.54966 20.8 5.64966 20.6L6.74966 18.4C6.64966 18.2 5.84966 16.9 3.84966 17.5ZM24.4497 14.5C24.2497 14.2 23.9497 14 23.6497 14C23.5497 14 23.3497 13.9 23.2497 13.9C23.0497 13.9 22.9497 13.9 22.7497 13.9H19.4497L15.0497 6C14.3497 6.7 14.0497 7.5 13.9497 8.2C13.7497 9.2 13.9497 10.3 14.4497 11.2L19.7497 20.6C19.8497 20.7 19.9497 20.9 20.0497 21C20.1497 21.1 20.2497 21.3 20.3497 21.4C20.5497 21.6 20.8497 21.8 21.1497 21.8C21.4497 21.8 21.7497 21.8 22.0497 21.6C22.3497 21.4 22.5497 21.2 22.6497 20.9C22.7497 20.6 22.7497 20.3 22.7497 19.9C22.7497 19.7 22.6497 19.6 22.5497 19.5C22.4497 19.3 22.3497 19.2 22.3497 19L21.1497 16.8H22.7497C22.9497 16.8 23.0497 16.8 23.2497 16.8C23.4497 16.8 23.5497 16.8 23.6497 16.7C23.9497 16.6 24.2497 16.4 24.4497 16.2C24.6497 15.9 24.7497 15.6 24.7497 15.3C24.7497 15.1 24.6497 14.7 24.4497 14.5Z" fill="#25D366"/>
</svg>
