<svg width="96" height="60" viewBox="0 0 96 60" fill="none" xmlns="http://www.w3.org/2000/svg">
<g filter="url(#filter0_d)">
<path d="M7.57812 15.5C7.57812 9.97715 12.0553 5.5 17.5781 5.5H78.5781C84.101 5.5 88.5781 9.97715 88.5781 15.5V40.5C88.5781 46.0228 84.101 50.5 78.5781 50.5H17.5781C12.0553 50.5 7.57812 46.0228 7.57812 40.5V15.5Z" fill="url(#paint0_linear)"/>
<g clip-path="url(#clip0)">
<path d="M44.7448 31.4L51.099 20.4C51.2031 20.2 51.3073 20.1 51.3073 19.9C51.4115 19.8 51.4115 19.6 51.5156 19.5C51.6198 19.2 51.6198 18.8 51.4115 18.5C51.3073 18.2 51.099 17.9 50.7865 17.8C50.5781 17.5 50.1615 17.5 49.849 17.5C49.5365 17.5 49.224 17.7 49.0156 17.9C48.9115 18 48.8073 18.1 48.7031 18.3C48.599 18.4 48.4948 18.6 48.3906 18.7L47.974 19.5L47.5573 18.8C47.4531 18.6 47.349 18.5 47.2448 18.4C47.1406 18.3 47.0365 18.1 46.9323 18C46.724 17.8 46.4115 17.6 46.099 17.6C45.8906 17.5 45.474 17.5 45.2656 17.7C44.9531 17.9 44.7448 18.1 44.5365 18.4C44.4323 18.7 44.4323 19.1 44.4323 19.4C44.4323 19.6 44.5365 19.7 44.6406 19.8C44.7448 20 44.849 20.2 44.9531 20.3L46.2031 22.6L41.099 31.4H37.6615C37.4531 31.4 37.349 31.4 37.1406 31.4C36.9323 31.4 36.8281 31.4 36.724 31.5C36.4115 31.6 36.099 31.8 35.8906 32C35.6823 32.2 35.5781 32.6 35.5781 32.9C35.5781 33.2 35.6823 33.6 35.8906 33.8C36.099 34.1 36.4115 34.3 36.724 34.3C36.8281 34.3 37.0365 34.4 37.1406 34.4C37.349 34.4 37.4531 34.4 37.6615 34.4H51.3073C51.3073 34.4 51.4115 34.3 51.4115 34.1C51.8281 32.7 50.7865 31.3 49.3281 31.3L44.7448 31.4ZM38.8073 35L37.974 36.5C37.8698 36.7 37.7656 36.8 37.7656 37C37.6615 37.1 37.6615 37.2 37.5573 37.4C37.4531 37.7 37.4531 38.1 37.6615 38.4C37.7656 38.7 37.974 39 38.2865 39.2C38.599 39.4 38.9115 39.4 39.224 39.4C39.5365 39.4 39.849 39.2 40.0573 39C40.1615 38.9 40.2656 38.8 40.3698 38.6C40.474 38.4 40.5781 38.3 40.6823 38.1L41.8281 35.9C41.724 35.7 40.8906 34.4 38.8073 35ZM60.2656 32C60.0573 31.7 59.7448 31.5 59.4323 31.5C59.3281 31.5 59.1198 31.4 59.0156 31.4C58.8073 31.4 58.7031 31.4 58.4948 31.4H55.0573L50.474 23.5C49.7448 24.2 49.4323 25 49.3281 25.7C49.1198 26.7 49.3281 27.8 49.849 28.7L55.3698 38.1C55.474 38.2 55.5781 38.4 55.6823 38.5C55.7865 38.6 55.8906 38.8 55.9948 38.9C56.2031 39.1 56.5156 39.3 56.8281 39.3C57.1406 39.3 57.4531 39.3 57.7656 39.1C58.0781 38.9 58.2865 38.7 58.3906 38.4C58.4948 38.1 58.4948 37.8 58.4948 37.4C58.4948 37.2 58.3906 37.1 58.2865 37C58.1823 36.8 58.0781 36.7 58.0781 36.5L56.8281 34.3H58.4948C58.7031 34.3 58.8073 34.3 59.0156 34.3C59.224 34.3 59.3281 34.3 59.4323 34.2C59.7448 34.1 60.0573 33.9 60.2656 33.7C60.474 33.4 60.5781 33.1 60.5781 32.8C60.5781 32.6 60.474 32.2 60.2656 32Z" fill="#25D366"/>
</g>
</g>
<defs>
<filter id="filter0_d" x="0.578125" y="0.5" width="95" height="59" filterUnits="userSpaceOnUse" color-interpolation-filters="sRGB">
<feFlood flood-opacity="0" result="BackgroundImageFix"/>
<feColorMatrix in="SourceAlpha" type="matrix" values="0 0 0 0 0 0 0 0 0 0 0 0 0 0 0 0 0 0 127 0"/>
<feOffset dy="2"/>
<feGaussianBlur stdDeviation="3.5"/>
<feColorMatrix type="matrix" values="0 0 0 0 0 0 0 0 0 0 0 0 0 0 0 0 0 0 0.09 0"/>
<feBlend mode="normal" in2="BackgroundImageFix" result="effect1_dropShadow"/>
<feBlend mode="normal" in="SourceGraphic" in2="effect1_dropShadow" result="shape"/>
</filter>
<linearGradient id="paint0_linear" x1="15.2592" y1="5.5" x2="15.0436" y2="50.5023" gradientUnits="userSpaceOnUse">
<stop stop-color="#2F30FF"/>
<stop offset="0.9999" stop-color="#4671FF"/>
<stop offset="1" stop-color="#4876FF" stop-opacity="0"/>
</linearGradient>
<clipPath id="clip0">
<rect width="25" height="21.9" fill="white" transform="translate(35.5781 17.5)"/>
</clipPath>
</defs>
</svg>
