<svg width="34" height="35" viewBox="0 0 34 35" fill="none" xmlns="http://www.w3.org/2000/svg">
<g clip-path="url(#clip0)">
<path d="M33.8873 5.61247C33.5492 5.02784 32.4597 3.6637 31.4077 2.49443C29.116 0 28.4774 0 28.1768 0C27.8762 0 27.2 0 24.9459 2.49443C23.8939 3.6637 22.8044 5.02784 22.4663 5.61247C22.2409 5.96325 22.3912 6.43096 22.7293 6.66481C23.0674 6.89866 23.5182 6.74276 23.7436 6.39198C24.232 5.53452 26.2232 3.23497 27.4254 2.10468V19.9944C27.4254 21.7873 27.0873 23.5022 26.4486 25.1392C25.7724 26.7762 24.8332 28.2572 23.6309 29.5045C21.189 32.0379 17.9204 33.441 14.4641 33.441C7.32597 33.441 1.50276 27.3998 1.50276 19.9944C1.50276 12.5891 7.32597 6.54788 14.4641 6.54788H18.0331C18.4464 6.54788 18.7845 6.1971 18.7845 5.76837C18.7845 5.33964 18.4464 4.98886 18.0331 4.98886H14.4641C6.49945 4.98886 0 11.7316 0 19.9944C0 28.2572 6.49945 35 14.4641 35C18.3337 35 21.9779 33.441 24.6829 30.5958C26.0354 29.1926 27.1249 27.5557 27.8387 25.7238C28.5525 23.931 28.9282 21.9822 28.9282 19.9944V2.0657C30.168 3.19599 32.1216 5.53452 32.6099 6.35301C32.7978 6.74276 33.2862 6.85969 33.6243 6.62584C34 6.39198 34.1127 5.92428 33.8873 5.61247Z" fill="#FBFBFB"/>
<path d="M12.4891 22.0431V23.1831H16.8891V24.5831H12.4891V26.6631H9.8891V24.5831H7.8891V23.1831H9.8891V12.6631H15.6491C17.5158 12.6631 18.9691 13.0631 20.0091 13.8631C21.0624 14.6631 21.5891 15.8298 21.5891 17.3631C21.5891 18.8831 21.0624 20.0431 20.0091 20.8431C18.9691 21.6431 17.5158 22.0431 15.6491 22.0431H12.4891ZM18.9691 17.3831C18.9691 16.5698 18.6824 15.9498 18.1091 15.5231C17.5358 15.0831 16.7091 14.8631 15.6291 14.8631H12.4891V19.9431H15.6291C16.6958 19.9431 17.5158 19.7231 18.0891 19.2831C18.6758 18.8298 18.9691 18.1964 18.9691 17.3831Z" fill="#FBFBFB"/>
</g>
<defs>
<clipPath id="clip0">
<rect width="34" height="35" fill="white"/>
</clipPath>
</defs>
</svg>
