<svg width="44" height="45" viewBox="0 0 44 45" fill="none" xmlns="http://www.w3.org/2000/svg">
<g clip-path="url(#clip0)">
<path d="M22 0.410156C9.85 0.410156 0 10.2602 0 22.4102C0 34.5602 9.85 44.4102 22 44.4102C34.15 44.4102 44 34.5602 44 22.4102C44 10.2602 34.15 0.410156 22 0.410156ZM22 42.9102C10.7 42.9102 1.5 33.7102 1.5 22.4102C1.5 11.1102 10.7 1.91016 22 1.91016C33.3 1.91016 42.5 11.1102 42.5 22.4102C42.5 33.7102 33.3 42.9102 22 42.9102Z" fill="#25D366"/>
<path d="M28.55 15.8602C28.85 16.1602 29.3 16.1602 29.6 15.8602C29.9 15.5602 29.9 15.1102 29.6 14.8102C25.4 10.6102 18.6 10.6102 14.4 14.8102C10.2 19.0102 10.2 25.8102 14.4 30.0102C16.5 32.1102 19.25 33.1602 22 33.1602C24.75 33.1602 27.5 32.1102 29.6 30.0102C29.9 29.7102 29.9 29.2602 29.6 28.9602C29.3 28.6602 28.85 28.6602 28.55 28.9602C24.95 32.5602 19.05 32.5602 15.45 28.9602C11.85 25.3602 11.85 19.4602 15.45 15.8602C19.05 12.2602 24.95 12.2602 28.55 15.8602Z" fill="#25D366"/>
</g>
<defs>
<clipPath id="clip0">
<rect width="44" height="44" fill="white" transform="translate(0 0.410156)"/>
</clipPath>
</defs>
</svg>
