<svg width="50" height="51" viewBox="0 0 50 51" fill="none" xmlns="http://www.w3.org/2000/svg">
<g clip-path="url(#clip0)">
<path d="M0.80645 0.910156H14.2742C14.5968 0.910156 14.9194 1.15209 15 1.47467L17.5 8.97467H41.129C41.6129 8.97467 41.9355 9.29725 41.9355 9.78112V17.0392H49.1935C49.6774 17.0392 50 17.3618 50 17.8456V50.1037C50 50.5876 49.6774 50.9102 49.1935 50.9102H8.87097H0.80645C0.322578 50.9102 0 50.5876 0 50.1037V1.71661C0 1.23274 0.322578 0.910156 0.80645 0.910156ZM48.3871 18.6521H41.129H9.67742V49.2973H48.3871V18.6521ZM1.6129 49.2973H8.06451V17.8456C8.06451 17.3618 8.3871 17.0392 8.87097 17.0392H40.3226V10.5876H16.9355C16.6129 10.5876 16.2903 10.3456 16.2097 10.0231L13.629 2.52306H1.6129V49.2973Z" fill="#25D366"/>
<path d="M24.3548 30.8295C24.7581 30.1843 25.3226 29.6198 25.9678 29.2166C26.5323 28.8134 27.2581 28.5714 27.9839 28.4102C28.7097 28.2489 29.5161 28.2489 30.2419 28.4102C30.9678 28.5714 31.6129 28.8134 32.2581 29.2166C32.9032 29.6198 33.4678 30.1843 33.871 30.8295C34.2742 31.4747 34.5161 32.1198 34.6774 32.8456C34.6774 33.2489 34.6774 33.5714 34.6774 33.9747C34.6774 34.3779 34.6774 34.7005 34.5968 35.1037C34.4355 35.8295 34.1936 36.4747 33.7903 37.1198C33.3871 37.765 32.8226 38.3295 32.1774 38.7327C31.6129 39.136 30.8871 39.3779 30.1613 39.5392C29.7581 39.6198 29.4355 39.6198 29.0323 39.6198C28.629 39.6198 28.3065 39.6198 27.9032 39.5392C27.1774 39.3779 26.5323 39.136 25.8871 38.7327C25.2419 38.3295 24.6774 37.765 24.2742 37.1198C23.871 36.4747 23.629 35.8295 23.4677 35.1037C23.3871 34.7005 23.3871 34.3779 23.3871 33.9747C23.3871 33.5714 23.3871 33.2489 23.4677 32.8456C23.629 32.1198 23.9516 31.4747 24.3548 30.8295ZM25.0807 34.7811C25.1613 35.265 25.4032 35.7489 25.6452 36.2327C25.9677 36.7166 26.2903 37.0392 26.7742 37.3618C27.1774 37.6843 27.6613 37.8456 28.2258 37.9263C28.7903 38.0069 29.2742 38.0069 29.8387 37.9263C30.3226 37.8456 30.8065 37.6037 31.2903 37.3618C31.7742 37.0392 32.0968 36.7166 32.4194 36.2327C32.7419 35.8295 32.9032 35.3456 32.9839 34.7811C33.0645 34.5392 33.0645 34.2166 33.0645 33.9747C33.0645 33.7327 33.0645 33.4102 32.9839 33.1682C32.9032 32.6843 32.6613 32.2005 32.4194 31.7166C32.0968 31.2327 31.7742 30.9102 31.2903 30.5876C30.8871 30.265 30.4032 30.1037 29.8387 30.0231C29.5968 29.9424 29.2742 29.9424 29.0323 29.9424C28.7903 29.9424 28.4678 29.9424 28.2258 30.0231C27.7419 30.1037 27.2581 30.3456 26.7742 30.5876C26.2903 30.9102 25.9677 31.2327 25.6452 31.7166C25.3226 32.1198 25.1613 32.6037 25.0807 33.1682C25 33.4102 25 33.7327 25 33.9747C25 34.2166 25 34.5392 25.0807 34.7811Z" fill="#25D366"/>
<path d="M17.7419 31.5553H20.4839C20.6452 30.9101 20.9677 30.265 21.2903 29.6198L19.3548 27.6843C19.0323 27.3617 19.0323 26.8779 19.3548 26.5553L21.6129 24.2972C21.9355 23.9746 22.4193 23.9746 22.7419 24.2972L24.6774 26.2327C25.2419 25.9101 25.8871 25.6682 26.6129 25.4263V22.6843C26.6129 22.2004 26.9355 21.8779 27.4193 21.8779H30.6452C31.129 21.8779 31.4516 22.2004 31.4516 22.6843V25.4263C32.0968 25.5875 32.7419 25.9101 33.3871 26.2327L35.3226 24.2972C35.6452 23.9746 36.129 23.9746 36.4516 24.2972L38.7097 26.5553C39.0323 26.8779 39.0323 27.3617 38.7097 27.6843L36.7742 29.6198C37.0968 30.1843 37.3387 30.8295 37.5806 31.5553H40.3226C40.8064 31.5553 41.129 31.8779 41.129 32.3617V35.5875C41.129 36.0714 40.8064 36.394 40.3226 36.394H37.5806C37.4194 37.0392 37.0968 37.6843 36.7742 38.3295L38.7097 40.265C39.0323 40.5875 39.0323 41.0714 38.7097 41.394L36.4516 43.6521C36.129 43.9746 35.6452 43.9746 35.3226 43.6521L33.3871 41.7166C32.8226 42.0392 32.1774 42.2811 31.4516 42.523V45.265C31.4516 45.7488 31.129 46.0714 30.6452 46.0714H27.4193C26.9355 46.0714 26.6129 45.7488 26.6129 45.265V42.523C25.9677 42.3617 25.3226 42.0392 24.6774 41.7166L22.7419 43.6521C22.4193 43.9746 21.9355 43.9746 21.6129 43.6521L19.3548 41.394C19.0323 41.0714 19.0323 40.5875 19.3548 40.265L21.2903 38.3295C20.9677 37.765 20.7258 37.1198 20.4839 36.394H17.7419C17.2581 36.394 16.9355 36.0714 16.9355 35.5875V32.3617C16.9355 31.8779 17.2581 31.5553 17.7419 31.5553ZM18.5484 34.7811H21.129C21.5323 34.7811 21.8548 35.023 21.9355 35.4263C22.0968 36.3134 22.5 37.2004 22.9839 38.0069C23.2258 38.3295 23.1452 38.7327 22.9032 39.0553L21.0484 40.9101L22.1774 42.0392L24.0323 40.1843C24.2742 39.9424 24.7581 39.8617 25.0806 40.1037C25.8871 40.5875 26.6935 40.9908 27.6613 41.1521C28.0645 41.2327 28.3064 41.5553 28.3064 41.9585V44.4585H29.9194V41.8779C29.9194 41.4746 30.1613 41.1521 30.5645 41.0714C31.4516 40.9101 32.3387 40.5069 33.1452 40.023C33.4677 39.7811 33.871 39.8617 34.1935 40.1037L36.0484 41.9585L37.1774 40.8295L35.3226 38.9746C35.0806 38.7327 35 38.2488 35.2419 37.9263C35.7258 37.1198 36.129 36.3134 36.2903 35.3456C36.371 34.9424 36.6935 34.7005 37.0968 34.7005H39.5161V33.0875H36.9355C36.5323 33.0875 36.2097 32.8456 36.129 32.4424C35.9677 31.5553 35.5645 30.6682 35.0806 29.8617C34.8387 29.5392 34.9194 29.1359 35.1613 28.8134L37.0161 26.9585L35.8871 25.8295L34.0323 27.6843C33.7903 27.9263 33.3064 28.0069 32.9839 27.765C32.1774 27.2811 31.371 26.8779 30.4032 26.7166C30 26.6359 29.7581 26.3134 29.7581 25.9101V23.4908H28.1452V26.0714C28.1452 26.4746 27.9032 26.7972 27.5 26.8779C26.6129 27.0392 25.7258 27.4424 24.9193 27.9263C24.5968 28.1682 24.1935 28.0875 23.871 27.8456L22.0161 25.9908L20.8871 27.1198L22.7419 28.9746C22.9839 29.2166 23.0645 29.7004 22.8226 30.023C22.3387 30.8295 21.9355 31.6359 21.7742 32.6037C21.6935 33.0069 21.371 33.2488 20.9677 33.2488H18.5484V34.7811Z" fill="#25D366"/>
</g>
<defs>
<clipPath id="clip0">
<rect width="50" height="50" fill="white" transform="matrix(-1 0 0 1 50 0.910156)"/>
</clipPath>
</defs>
</svg>
