<svg width="55" height="58" viewBox="0 0 55 58" fill="none" xmlns="http://www.w3.org/2000/svg">
<g clip-path="url(#clip0)">
<path d="M54.1314 35.4244L48.7928 31.2277C48.979 29.7244 48.979 28.1585 48.7928 26.6552L54.1314 22.3959C55.0004 21.7069 55.2488 20.3915 54.6901 19.4519L49.2273 9.93104C48.6686 8.92884 47.4892 8.49038 46.4339 8.8662L40.102 11.4343C38.8605 10.5574 37.5569 9.74312 36.1912 9.11675L35.198 2.41455C35.0738 1.22444 34.0806 0.410156 32.9632 0.410156H22.0377C20.9203 0.410156 19.9271 1.22444 19.8029 2.35191L18.8097 9.17939C17.444 9.80576 16.1404 10.5574 14.8989 11.497L8.56704 8.92884C7.51173 8.49038 6.2702 8.92884 5.77358 9.93104L0.310829 19.4519C-0.247861 20.3915 0.00044571 21.7069 0.86952 22.3959L6.20812 26.5926C6.02189 28.0959 6.02189 29.6618 6.20812 31.1651L0.86952 35.4244C0.00044571 36.1135 -0.247861 37.4288 0.310829 38.3684L5.77358 47.8893C6.33227 48.8915 7.51173 49.3299 8.56704 48.9541L14.8989 46.386C16.1404 47.2629 17.444 48.0146 18.8097 48.6409L19.7409 55.4058C19.865 56.5332 20.8582 57.4102 21.9756 57.4102H32.9011C34.0185 57.4102 35.0117 56.5959 35.1359 55.4684L36.1912 48.6409C37.5569 48.0146 38.8605 47.2629 40.102 46.3233L46.4339 48.8915C47.4892 49.3299 48.6686 48.8915 49.2273 47.8893L54.6901 38.3058C55.2488 37.3662 55.0004 36.1135 54.1314 35.4244ZM53.0761 37.4288L47.6133 47.0124C47.4892 47.2003 47.3029 47.2629 47.1167 47.2003L40.2883 44.4442C39.9779 44.319 39.6675 44.3816 39.3571 44.5695C37.9914 45.6343 36.5016 46.5113 34.9497 47.1376C34.6393 47.2629 34.453 47.5135 34.391 47.8893L33.3977 55.2178C33.3357 55.4058 33.2115 55.531 32.9632 55.531H22.0377C21.8515 55.531 21.6652 55.4058 21.6032 55.1552L20.5478 47.8266C20.4858 47.5135 20.2995 47.2003 19.9892 47.075C18.3752 46.4486 16.8853 45.5717 15.5817 44.5069C15.3955 44.3816 15.2093 44.3189 15.023 44.3189C14.8989 44.3189 14.7747 44.3189 14.6506 44.3816L7.88419 47.1376C7.69796 47.2003 7.44966 47.1376 7.3255 46.9497L1.92482 37.4915C1.80067 37.3036 1.86275 37.053 2.04898 36.9277L7.82212 32.3552C8.07042 32.1673 8.19458 31.8541 8.19458 31.4783C8.07042 30.6014 8.00835 29.7871 8.00835 28.9102C8.00835 28.0332 8.07042 27.1563 8.19458 26.342C8.25665 26.0288 8.1325 25.7157 7.82212 25.4651L2.04898 20.9552C1.86275 20.8299 1.86275 20.5794 1.92482 20.3915L7.38758 10.808C7.51173 10.62 7.69796 10.5574 7.88419 10.62L14.7126 13.3761C15.023 13.5014 15.3334 13.4387 15.5817 13.2508C16.9474 12.186 18.4372 11.3717 19.9892 10.6827C20.2995 10.5574 20.4858 10.3069 20.5478 9.93104L21.5411 2.60246C21.6652 2.41455 21.8515 2.28928 22.0377 2.28928H32.9632C33.1494 2.28928 33.3357 2.41455 33.3977 2.6651L34.453 9.99367C34.5151 10.3069 34.7014 10.62 35.0117 10.7453C36.5637 11.4343 38.0535 12.3113 39.4192 13.3135C39.6675 13.5014 40.04 13.564 40.3503 13.4387L47.1167 10.6827C47.3029 10.62 47.5512 10.6827 47.6754 10.8706L53.1381 20.3915C53.2623 20.5794 53.2002 20.8299 53.0761 20.9552L47.2409 25.4651C46.9925 25.653 46.8684 25.9662 46.8684 26.342C46.9925 27.219 47.0546 28.0332 47.0546 28.9102C47.0546 29.7871 46.9925 30.664 46.8684 31.4783C46.8063 31.7915 46.9305 32.1047 47.2409 32.3552L53.014 36.9277C53.1381 37.053 53.2002 37.2409 53.0761 37.4288Z" fill="#25D366"/>
<path d="M27.5 13.564C19.1196 13.564 12.3533 20.4541 12.3533 28.9102C12.3533 37.3662 19.1817 44.1937 27.5621 44.1937C35.9424 44.1937 42.7088 37.3036 42.7088 28.8475C42.7088 24.7761 41.0948 20.8926 38.2393 18.0113C35.3837 15.1926 31.535 13.564 27.5 13.564ZM19.7404 39.8717C18.4989 38.9948 17.4436 37.93 16.5745 36.6772C16.6366 36.6772 16.6986 36.6146 16.7607 36.5519L22.3476 30.9146C22.5959 30.664 22.7201 30.2256 22.5339 29.9124C21.2302 26.342 23.0305 22.3959 26.5688 21.0805C27.8725 20.5794 29.2381 20.5168 30.5418 20.83L26.4447 25.0893C26.0722 25.4651 26.0722 26.0289 26.4447 26.4047L29.9831 29.975C30.3555 30.3508 30.9142 30.3508 31.2867 29.975L35.3217 25.9036C35.8804 28.2212 35.1975 30.664 33.5214 32.3552C31.6591 34.297 28.8657 34.9234 26.3826 33.9212C26.0102 33.7959 25.6377 33.8585 25.3894 34.1091L19.8025 39.7464C19.8025 39.8091 19.8025 39.8091 19.7404 39.8717ZM36.9357 38.4311C32.8386 42.5651 26.5688 43.5673 21.4165 40.8739L26.3826 35.8629C29.4244 36.8025 32.7144 35.9256 34.9492 33.6706C37.4944 31.0399 38.1772 27.0937 36.6874 23.7739C36.5011 23.2728 35.9424 23.0849 35.4458 23.3355C35.3217 23.3981 35.2596 23.4607 35.1975 23.5234L30.728 27.9706L28.4932 25.7157L32.9628 21.1431C33.3352 20.7673 33.3352 20.2036 32.9628 19.8278C32.9007 19.7651 32.8386 19.7025 32.7144 19.6399C28.3691 17.5728 23.2167 19.5146 21.1682 23.8992C20.2991 25.8409 20.1129 27.9706 20.6716 30.0377L15.6433 35.1113C12.2912 28.4717 14.8363 20.3915 21.4165 17.0091C27.9966 13.6267 36.0045 16.1948 39.3567 22.8344C42.026 27.9706 41.0327 34.297 36.9357 38.4311Z" fill="#25D366"/>
</g>
<defs>
<clipPath id="clip0">
<rect width="55" height="57" fill="white" transform="translate(0 0.410156)"/>
</clipPath>
</defs>
</svg>
