<svg width="42" height="43" viewBox="0 0 42 43" fill="none" xmlns="http://www.w3.org/2000/svg">
<path d="M21.525 34.5431L24.2812 27.5869C22.8375 26.5369 21.3937 25.3556 19.95 23.9119C19.6875 23.6494 19.425 23.3869 19.2937 23.2556C17.85 25.4869 16.0125 27.1931 14.8312 27.1931C12.6 27.1931 8.39998 21.1556 7.87498 17.4806C6.95623 17.4806 6.03748 17.4806 4.85623 17.6119V33.2306C7.34998 31.7869 9.84373 31.1306 12.3375 31.1306C15.3562 31.2619 18.5062 32.3119 21.525 34.5431ZM23.7562 36.1181C25.725 37.2994 27.825 37.8244 29.7937 37.8244C32.2875 37.8244 34.65 36.9056 37.275 35.1994V31.1306C34.5187 31.6556 31.7625 31.2619 29.0062 30.2119C28.2187 29.9494 27.4312 29.5556 26.6437 29.1619L23.7562 36.1181ZM30.5812 11.9681C30.3187 11.9681 30.0562 11.9681 29.7937 11.9681C26.5125 11.9681 23.3625 10.7869 20.2125 8.42439C17.4562 6.45564 14.8312 5.40564 12.2062 5.40564C9.71248 5.40564 7.34998 6.32439 4.72498 8.03064V15.1181C5.90623 14.9869 6.95623 14.9869 7.87498 14.9869C8.66248 11.9681 11.4187 9.73689 14.7 9.73689C18.6375 9.73689 21.7875 12.8869 21.7875 16.8244C21.7875 18.0056 21.2625 19.5806 20.475 21.0244C20.7375 21.2869 21.1312 21.6806 21.6562 22.2056C22.8375 23.3869 24.0187 24.4369 25.0687 25.2244L30.5812 11.9681ZM33.6 11.4431L27.5625 26.6681C28.35 27.0619 29.1375 27.4556 29.7937 27.7181C32.2875 28.6369 34.65 28.8994 37.1437 28.3744V9.73689C35.9625 10.5244 34.7812 11.0494 33.6 11.4431ZM10.5 16.1681C10.5 16.2994 10.5 16.5619 10.5 16.8244C10.5 18.0056 11.2875 19.9744 12.6 21.9431C13.125 22.8619 13.7812 23.6494 14.3062 24.1744C14.5687 24.4369 14.7 24.5681 14.8312 24.6994C14.9625 24.5681 15.225 24.4369 15.3562 24.1744C15.8812 23.6494 16.5375 22.8619 17.0625 21.9431C18.375 19.9744 19.1625 18.0056 19.1625 16.8244C19.1625 14.3306 17.1937 12.3619 14.7 12.3619C12.7312 12.3619 11.1562 13.5431 10.5 15.3806V16.1681ZM3.28123 5.93064C6.29998 3.83064 9.18748 2.78064 12.2062 2.78064C15.4875 2.78064 18.6375 3.96189 21.7875 6.32439C24.5437 8.29314 27.1687 9.34314 29.7937 9.34314C31.7625 9.34314 33.8625 8.81814 35.9625 7.50564C37.1437 6.84939 38.7187 7.24314 39.375 8.55564C39.6375 8.94939 39.7687 9.47439 39.7687 9.86814V35.1994C39.7687 36.1181 39.375 36.9056 38.7187 37.2994C35.8312 39.3994 32.8125 40.4494 29.7937 40.4494C26.5125 40.4494 23.3625 39.2681 20.2125 36.9056C17.4562 34.9369 14.8312 33.8869 12.2062 33.8869C10.2375 33.8869 8.13748 34.4119 6.03748 35.7244C4.72498 36.5119 3.14998 35.9869 2.49373 34.8056C2.23123 34.4119 2.09998 33.8869 2.09998 33.4931V8.16189C2.23123 7.24314 2.62498 6.45564 3.28123 5.93064Z" fill="#FBFBFB"/>
</svg>
