<svg width="34" height="54" viewBox="0 0 34 54" fill="none" xmlns="http://www.w3.org/2000/svg">
<path d="M11.1929 50.8445L13.2829 43.0446L17.6056 44.2028C17.9258 44.2886 18.1969 44.1307 18.2834 43.8079L19.8256 38.0521C22.1737 38.6813 24.6138 37.2595 25.248 34.8927L29.1541 20.3149C29.2406 19.9921 29.0848 19.7198 28.7646 19.634L27.0035 19.1621L29.7853 8.78016C29.8718 8.4574 29.716 8.18503 29.3958 8.09924L15.7341 4.43859C15.4139 4.3528 15.1428 4.51077 15.0563 4.83352L12.2745 15.2155L10.5134 14.7436C10.1932 14.6578 9.92208 14.8158 9.83559 15.1385L5.92949 29.7163C5.29529 32.0832 6.69758 34.5345 9.04569 35.1636L7.50343 40.9194C7.41694 41.2422 7.57275 41.5146 7.89295 41.6003L12.2156 42.7586L10.1256 50.5585L11.1929 50.8445ZM15.9795 5.65744L28.5739 9.03209L25.9362 18.8761L13.3418 15.5015L15.9795 5.65744ZM6.99681 30.0023L10.7588 15.9624L27.9427 20.5668L24.1807 34.6067C23.705 36.3818 21.875 37.4481 20.1139 36.9763L9.33396 34.0878C7.57288 33.6159 6.52116 31.7774 6.99681 30.0023ZM10.113 35.4496L18.7583 37.7661L17.3602 42.984L8.71488 40.6675L10.113 35.4496Z" fill="#FBFBFB" stroke="white"/>
</svg>
