<svg width="13" height="18" viewBox="0 0 13 18" fill="none" xmlns="http://www.w3.org/2000/svg">
<path fill-rule="evenodd" clip-rule="evenodd" d="M11.901 16.8912C12.1323 16.1767 12.5124 14.8004 12.7008 14.1089C12.9387 13.2429 13.0676 13.4537 12.2183 13.1507C11.597 12.9268 10.3742 12.5087 9.76612 12.2979C9.15473 12.0872 9.15473 12.0872 8.72511 12.3276C8.29549 12.5679 7.43624 13.052 7.00662 13.2923C6.577 13.5327 6.577 13.5327 6.38532 13.345C4.93122 11.9193 3.38458 9.22255 2.88556 7.30291C2.81947 7.04608 2.81947 7.04608 3.24248 6.79584C3.66879 6.5456 4.51482 6.04511 4.94114 5.79486C5.36745 5.54462 5.36745 5.54462 5.48973 4.91242C5.61201 4.28023 5.85656 3.01583 5.97553 2.37047C6.13747 1.48473 6.25644 1.70205 5.38398 1.47485C4.68997 1.29376 3.30196 0.93156 2.565 0.773511C1.81151 0.615462 1.67271 0.519974 1.4579 1.23778C1.02497 2.67998 0.829988 4.20779 1.00845 5.70596C1.42154 9.18633 3.97614 13.6413 6.83808 15.7684C8.00467 16.6344 9.52487 17.2765 10.9459 17.6123C11.6763 17.7835 11.6631 17.6189 11.901 16.8912Z" fill="#B9B9B9"/>
</svg>
