<svg width="18" height="19" viewBox="0 0 18 19" fill="none" xmlns="http://www.w3.org/2000/svg">
<path d="M8.99643 2.50847C11.4 2.50847 11.6821 2.51919 12.6321 2.56205C13.5107 2.60134 13.9857 2.7478 14.3036 2.87283C14.725 3.03715 15.025 3.23004 15.3393 3.54439C15.6536 3.85874 15.85 4.1588 16.0107 4.58031C16.1321 4.89823 16.2821 5.37332 16.3214 6.25207C16.3643 7.20226 16.375 7.48446 16.375 9.8885C16.375 12.2926 16.3643 12.5748 16.3214 13.5249C16.2821 14.4037 16.1357 14.8788 16.0107 15.1967C15.8464 15.6182 15.6536 15.9183 15.3393 16.2326C15.025 16.547 14.725 16.7434 14.3036 16.9042C13.9857 17.0256 13.5107 17.1757 12.6321 17.215C11.6821 17.2578 11.4 17.2685 8.99643 17.2685C6.59286 17.2685 6.31071 17.2578 5.36071 17.215C4.48214 17.1757 4.00714 17.0292 3.68929 16.9042C3.26786 16.7399 2.96786 16.547 2.65357 16.2326C2.33929 15.9183 2.14286 15.6182 1.98214 15.1967C1.86071 14.8788 1.71071 14.4037 1.67143 13.5249C1.62857 12.5748 1.61786 12.2926 1.61786 9.8885C1.61786 7.48446 1.62857 7.20226 1.67143 6.25207C1.71071 5.37332 1.85714 4.89823 1.98214 4.58031C2.14643 4.1588 2.33929 3.85874 2.65357 3.54439C2.96786 3.23004 3.26786 3.03357 3.68929 2.87283C4.00714 2.75137 4.48214 2.60134 5.36071 2.56205C6.31071 2.51561 6.59643 2.50847 8.99643 2.50847ZM8.99643 0.886719C6.55357 0.886719 6.24643 0.897435 5.28571 0.940301C4.32857 0.983166 3.675 1.13677 3.10357 1.35824C2.51071 1.58686 2.01071 1.89763 1.51071 2.39773C1.01071 2.89783 0.703571 3.4015 0.471429 3.99091C0.25 4.56245 0.0964286 5.21615 0.0535714 6.17705C0.0107143 7.13439 0 7.44159 0 9.88493C0 12.3283 0.0107143 12.6355 0.0535714 13.5964C0.0964286 14.5537 0.25 15.2074 0.471429 15.7825C0.7 16.3755 1.01071 16.8756 1.51071 17.3757C2.01071 17.8758 2.51429 18.183 3.10357 18.4152C3.675 18.6367 4.32857 18.7903 5.28929 18.8331C6.25 18.876 6.55357 18.8867 9 18.8867C11.4464 18.8867 11.75 18.876 12.7107 18.8331C13.6679 18.7903 14.3214 18.6367 14.8964 18.4152C15.4893 18.1866 15.9893 17.8758 16.4893 17.3757C16.9893 16.8756 17.2964 16.3719 17.5286 15.7825C17.75 15.211 17.9036 14.5573 17.9464 13.5964C17.9893 12.6355 18 12.3318 18 9.88493C18 7.43802 17.9893 7.13439 17.9464 6.17348C17.9036 5.21615 17.75 4.56245 17.5286 3.98733C17.3 3.39436 16.9893 2.89426 16.4893 2.39416C15.9893 1.89406 15.4857 1.58686 14.8964 1.35467C14.325 1.1332 13.6714 0.979594 12.7107 0.936729C11.7464 0.897435 11.4393 0.886719 8.99643 0.886719Z" fill="#B9B9B9"/>
<path d="M8.99643 5.26611C6.44643 5.26611 4.375 7.33438 4.375 9.88846C4.375 12.4425 6.44286 14.5108 8.99643 14.5108C11.55 14.5108 13.6179 12.4425 13.6179 9.88846C13.6179 7.33438 11.55 5.26611 8.99643 5.26611ZM8.99643 12.8855C7.33928 12.8855 5.99643 11.5424 5.99643 9.88488C5.99643 8.22741 7.33928 6.88429 8.99643 6.88429C10.6536 6.88429 11.9964 8.22741 11.9964 9.88488C11.9964 11.5424 10.6536 12.8855 8.99643 12.8855Z" fill="#B9B9B9"/>
<path d="M13.8 6.15904C14.3957 6.15904 14.8786 5.67605 14.8786 5.08025C14.8786 4.48445 14.3957 4.00146 13.8 4.00146C13.2043 4.00146 12.7214 4.48445 12.7214 5.08025C12.7214 5.67605 13.2043 6.15904 13.8 6.15904Z" fill="#B9B9B9"/>
</svg>
