<svg width="375" height="507" viewBox="0 0 375 507" fill="none" xmlns="http://www.w3.org/2000/svg">
<path d="M-158.678 504.502L314.717 231.43C334.779 219.844 334.779 190.923 314.717 179.38L48.7148 25.9119C25.6712 12.6224 25.6712 -20.6013 48.7148 -33.8907L135.139 -83.7263C145.83 -89.9025 158.992 -89.9025 169.726 -83.7263L238.856 -43.8579C249.548 -37.6817 262.709 -37.6817 273.443 -43.8579L314.973 -67.8386C334.992 -79.3817 335.035 -108.218 315.101 -119.846L67.9249 -263.943C57.1911 -270.205 43.9442 -270.205 33.2104 -264.029L-53.1285 -214.236L-87.7152 -194.302C-98.4064 -188.125 -111.568 -188.125 -122.259 -194.302L-171.669 -222.755C-188.11 -232.211 -188.11 -255.936 -171.669 -265.434L478.408 -655.073C501.451 -668.363 501.451 -701.586 478.408 -714.876C455.364 -728.165 455.364 -761.389 478.408 -774.678L530.245 -804.58C553.289 -817.869 553.289 -851.093 530.245 -864.382L443.821 -914.218C433.13 -920.394 419.968 -920.394 409.234 -914.218L236.386 -814.504C225.695 -808.328 212.533 -808.328 201.799 -814.504L48.7148 -902.888C32.2734 -912.386 32.2734 -936.069 48.7148 -945.525L547.155 -1233.08C562.66 -1242.02 562.66 -1264.43 547.155 -1273.37L443.821 -1333.01C433.13 -1339.18 419.968 -1339.18 409.234 -1333.01L236.386 -1233.29C225.695 -1227.12 212.533 -1227.12 201.799 -1233.29L153.242 -1261.32C136.417 -1271.03 136.417 -1295.31 153.242 -1305.02L460.049 -1482C471.294 -1488.48 485.18 -1488.14 496.084 -1481.11L558.528 -1440.86C569.432 -1433.83 583.318 -1433.49 594.563 -1439.96L708.503 -1505.68C721.452 -1513.14 721.452 -1531.79 708.503 -1539.25L547.496 -1632.15C536.805 -1638.32 523.643 -1638.32 512.909 -1632.15L340.146 -1532.39C329.455 -1526.22 316.293 -1526.22 305.559 -1532.39L167.298 -1612.17C144.254 -1625.46 144.254 -1658.68 167.298 -1671.97L452.468 -1836.52" stroke="#F4F4F6" stroke-width="4" stroke-miterlimit="10"/>
</svg>
