<svg width="20" height="22" viewBox="0 0 20 22" fill="none" xmlns="http://www.w3.org/2000/svg">
<path d="M0.0909091 0C0 0.0916667 0 0.183333 0 0.275V21.5417C0 21.725 0.0909091 21.8167 0.181818 22L10.5455 10.9083L0.0909091 0ZM11.2727 11.6417L14 14.3917L10.1818 16.5917C10.1818 16.5917 5.27273 19.3417 2.63636 20.9L11.2727 11.6417ZM12 10.9083L14.9091 13.9333C15.3636 13.6583 18.9091 11.6417 19.3636 11.3667C19.9091 11.0917 19.8182 10.6333 19.3636 10.45C18.9091 10.175 15.4545 8.15833 14.9091 7.88333L12 10.9083ZM11.2727 10.175L14 7.24167L10.0909 5.04167C10.0909 5.04167 3.81818 1.375 1.63636 0.183333L11.2727 10.175Z" fill="#25D366"/>
</svg>
