<svg width="53" height="108" viewBox="0 0 53 108" fill="none" xmlns="http://www.w3.org/2000/svg">
<path d="M26.5 105.625C30.8971 105.625 34.4617 103.472 34.4617 100.817C34.4617 98.1611 30.8971 96.0084 26.5 96.0084C22.1029 96.0084 18.5383 98.1611 18.5383 100.817C18.5383 103.472 22.1029 105.625 26.5 105.625Z" fill="white" stroke="url(#paint0_linear)" stroke-width="3" stroke-miterlimit="10"/>
<path d="M26.5 24.4465C12.1316 24.4465 0.5 35.9988 0.5 50.2363C0.5 73.1535 24.6962 89.1394 25.7536 89.8263L26.5 90.3259L27.2464 89.8263C28.2416 89.1394 52.5 73.0911 52.5 50.2363C52.5 36.0613 40.8062 24.4465 26.5 24.4465Z" fill="url(#paint1_linear)"/>
<path d="M29.6101 39.246H23.8876C22.8301 39.246 21.9593 40.1202 21.9593 41.1818V48.4254C21.9593 48.5503 22.0837 48.6751 22.2081 48.6751H31.3517C31.4761 48.6751 31.6005 48.5503 31.6005 48.4254V41.2442C31.5383 40.1202 30.6675 39.246 29.6101 39.246ZM30.4809 43.742C30.4809 44.4289 29.9211 44.9909 29.2368 44.9909H24.323C23.6388 44.9909 23.0789 44.4289 23.0789 43.742V41.494C23.0789 40.8071 23.6388 40.2451 24.323 40.2451H29.2368C29.9211 40.2451 30.4809 40.8071 30.4809 41.494V43.742Z" fill="white"/>
<path d="M29.4856 43.4299C29.4856 43.6796 29.2368 43.9294 28.988 43.9294H24.5096C24.2608 43.9294 24.012 43.6796 24.012 43.4299C24.012 43.1801 24.2608 42.9303 24.5096 42.9303H28.988C29.2368 42.9303 29.4856 43.1176 29.4856 43.4299Z" fill="white"/>
<path d="M29.4856 41.8687C29.4856 42.1185 29.2368 42.3683 28.988 42.3683H24.5096C24.2608 42.3683 24.012 42.1185 24.012 41.8687C24.012 41.6189 24.2608 41.3691 24.5096 41.3691H28.988C29.2368 41.3691 29.4856 41.6189 29.4856 41.8687Z" fill="white"/>
<path d="M32.0359 49.4869H21.4617C21.0885 49.4869 20.8397 49.7992 20.8397 50.1114V61.3515C20.8397 61.7261 21.1507 61.9759 21.4617 61.9759H32.0359C32.4091 61.9759 32.6579 61.6637 32.6579 61.3515V50.1114C32.6579 49.7367 32.4091 49.4869 32.0359 49.4869ZM28.677 55.9812L26.1268 58.9786C26.0024 59.1034 25.878 58.9786 25.9402 58.8537L26.5622 56.4808C26.5622 56.4183 26.5622 56.3559 26.5 56.2934L24.8828 55.5441C24.8206 55.4816 24.7584 55.3568 24.8206 55.2943L27.3708 52.297C27.4952 52.1721 27.6196 52.297 27.5574 52.4218L26.9354 54.7948C26.9354 54.8572 26.9354 54.9196 26.9976 54.9821L28.6148 55.7314C28.7392 55.7939 28.7392 55.9188 28.677 55.9812Z" fill="white"/>
<path d="M44.6005 43.9918C44.1029 42.8678 43.5431 41.7438 42.7966 40.6822C42.1124 39.6831 41.3038 38.684 40.433 37.8097C39.5622 36.9355 38.567 36.1237 37.5718 35.4368C36.5144 34.7499 35.4569 34.1255 34.2751 33.6259C31.9115 32.6268 29.3612 32.1273 26.7488 32.1273C24.1364 32.1273 21.5861 32.6268 19.2225 33.6259C18.1029 34.1255 16.9833 34.6875 15.9258 35.4368C14.9306 36.1237 13.9354 36.9355 13.0646 37.8097C12.1938 38.684 11.3852 39.6831 10.701 40.6822C10.0167 41.7438 9.39473 42.8053 8.89713 43.9918C7.90191 46.3647 7.4043 48.9249 7.4043 51.5476C7.4043 53.5459 7.7153 55.5441 8.33731 57.4799C8.89712 59.3532 9.76794 61.1017 10.8876 62.6628C12.0072 64.2239 13.3134 65.6602 14.8062 66.8466C16.299 68.0331 18.0407 69.0322 19.7823 69.7191C20.7775 70.0937 21.9593 69.5942 22.3325 68.5951C22.7057 67.5959 22.2081 66.4095 21.2129 66.0348C15.3038 63.7244 11.323 57.917 11.323 51.6101C11.323 43.0551 18.2273 36.1237 26.7488 36.1237C35.2703 36.1237 42.1746 43.0551 42.1746 51.6101C42.1746 57.9794 38.1938 63.7868 32.2847 66.0348C31.2895 66.4095 30.7297 67.5959 31.1651 68.5951C31.4761 69.4068 32.2225 69.844 33.0311 69.844C33.2799 69.844 33.5287 69.7815 33.7153 69.7191C35.5191 69.0322 37.1986 68.0331 38.6914 66.8466C40.1842 65.6602 41.4904 64.2239 42.6101 62.6628C43.7297 61.0392 44.6005 59.2908 45.1603 57.4799C45.7823 55.5441 46.0933 53.5459 46.0933 51.5476C46.0933 48.9249 45.5957 46.4271 44.6005 43.9918Z" fill="white"/>
<path d="M26.7488 63.9741C25.6292 63.9741 24.7584 64.8484 24.7584 65.9724V72.2793C24.7584 73.4033 25.6292 74.2775 26.7488 74.2775C27.8684 74.2775 28.7392 73.4033 28.7392 72.2793V65.9724C28.7392 64.8484 27.8062 63.9741 26.7488 63.9741Z" fill="white"/>
<path d="M39.3134 9.77198L34.4617 8.39819C34.2751 8.33575 34.1507 8.14842 34.2129 7.96108L34.9593 1.09214C35.0215 0.655031 34.5239 0.467696 34.2751 0.779921L28.366 10.2715C28.2416 10.5213 28.3038 10.8335 28.5526 10.9584L33.4043 12.3322C33.5909 12.3947 33.7153 12.582 33.6531 12.7693L32.9067 19.5758C32.8445 20.0129 33.3421 20.2003 33.5909 19.8881L39.5 10.4589C39.6866 10.2091 39.5622 9.83443 39.3134 9.77198Z" fill="#FFCC3E"/>
<path d="M25.567 9.77198L20.7153 8.39819C20.5287 8.33575 20.4043 8.14842 20.4665 7.96108L21.2129 1.09214C21.2751 0.655031 20.7775 0.467696 20.5287 0.779921L14.6196 10.334C14.4952 10.5838 14.5574 10.896 14.8062 11.0209L19.6579 12.3947C19.8445 12.4571 19.9689 12.6444 19.9067 12.8318L19.1603 19.6383C19.0981 20.0754 19.5957 20.2627 19.8445 19.9505L25.7536 10.4589C25.9402 10.2091 25.8158 9.83443 25.567 9.77198Z" fill="#FFCC3E"/>
<defs>
<linearGradient id="paint0_linear" x1="20.0483" y1="96.0084" x2="19.9982" y2="105.625" gradientUnits="userSpaceOnUse">
<stop stop-color="#37D066"/>
<stop offset="1" stop-color="#76ED9B"/>
</linearGradient>
<linearGradient id="paint1_linear" x1="0.484014" y1="57.4138" x2="52.4817" y2="57.4138" gradientUnits="userSpaceOnUse">
<stop stop-color="#2829FF"/>
<stop offset="1" stop-color="#4876FF"/>
</linearGradient>
</defs>
</svg>
