<svg width="53" height="82" viewBox="0 0 53 82" fill="none" xmlns="http://www.w3.org/2000/svg">
<path d="M26.5 77.8076C30.8971 77.8076 34.4617 75.7688 34.4617 73.2539C34.4617 70.739 30.8971 68.7003 26.5 68.7003C22.1029 68.7003 18.5383 70.739 18.5383 73.2539C18.5383 75.7688 22.1029 77.8076 26.5 77.8076Z" fill="white" stroke="url(#paint0_linear)" stroke-width="3" stroke-miterlimit="10"/>
<path d="M26.5 0.92757C12.1316 0.92757 0.5 11.8682 0.5 25.3518C0.5 47.0556 24.6962 62.195 25.7536 62.8455L26.5 63.3186L27.2464 62.8455C28.2416 62.195 52.5 46.9964 52.5 25.3518C52.5 11.9273 40.8684 0.92757 26.5 0.92757Z" fill="url(#paint1_linear)"/>
<path d="M29.6101 14.9434H23.8876C22.8302 14.9434 21.9594 15.7713 21.9594 16.7767V23.6367C21.9594 23.755 22.0837 23.8733 22.2082 23.8733H31.3517C31.4761 23.8733 31.6005 23.755 31.6005 23.6367V16.8358C31.6005 15.8304 30.7297 14.9434 29.6101 14.9434ZM30.4809 19.2013C30.4809 19.8518 29.9211 20.3841 29.2369 20.3841H24.323C23.6388 20.3841 23.079 19.8518 23.079 19.2013V17.0723C23.079 16.4218 23.6388 15.8896 24.323 15.8896H29.2369C29.9211 15.8896 30.4809 16.4218 30.4809 17.0723V19.2013Z" fill="white"/>
<path d="M29.4856 18.9057C29.4856 19.1422 29.2368 19.3788 28.988 19.3788H24.5096C24.2608 19.3788 24.012 19.1422 24.012 18.9057C24.012 18.6691 24.2608 18.4326 24.5096 18.4326H28.988C29.299 18.4326 29.4856 18.6691 29.4856 18.9057Z" fill="white"/>
<path d="M29.4856 17.4272C29.4856 17.6638 29.2368 17.9003 28.988 17.9003H24.5096C24.2608 17.9003 24.012 17.6638 24.012 17.4272C24.012 17.1907 24.2608 16.9541 24.5096 16.9541H28.988C29.299 16.9541 29.4856 17.1907 29.4856 17.4272Z" fill="white"/>
<path d="M32.0359 24.6421H21.4617C21.0885 24.6421 20.8397 24.9378 20.8397 25.2335V35.8784C20.8397 36.2332 21.1507 36.4698 21.4617 36.4698H32.0359C32.4091 36.4698 32.6579 36.1741 32.6579 35.8784V25.2335C32.7201 24.9378 32.4091 24.6421 32.0359 24.6421ZM28.677 30.7925L26.1268 33.6311C26.0024 33.7494 25.878 33.6311 25.9402 33.5129L26.5622 31.2656C26.5622 31.2065 26.5622 31.1473 26.5 31.0882L24.8828 30.3785C24.8206 30.3194 24.7584 30.2011 24.8206 30.142L27.3708 27.3033C27.4952 27.1851 27.6196 27.3033 27.5574 27.4216L26.9354 29.6689C26.9354 29.728 26.9354 29.7871 26.9976 29.8463L28.6148 30.5559C28.7392 30.6151 28.7392 30.7334 28.677 30.7925Z" fill="white"/>
<path d="M44.6005 19.4379C44.1029 18.3734 43.5431 17.3089 42.7967 16.3036C42.1124 15.3573 41.3038 14.4111 40.433 13.5832C39.5622 12.7553 38.567 11.9865 37.5718 11.3359C36.5144 10.6854 35.4569 10.094 34.2751 9.62092C31.9115 8.6747 29.3613 8.2016 26.7488 8.2016C24.1364 8.2016 21.5861 8.6747 19.2225 9.62092C18.1029 10.094 16.9833 10.6263 15.9258 11.3359C14.9306 11.9865 13.9354 12.7553 13.0646 13.5832C12.1938 14.4111 11.3852 15.3573 10.701 16.3036C10.0168 17.3089 9.39475 18.3143 8.89714 19.4379C7.90193 21.6852 7.40431 24.1098 7.40431 26.5937C7.40431 28.4861 7.71532 30.3785 8.33733 32.2118C8.89713 33.986 9.76795 35.6418 10.8876 37.1203C12.0072 38.5988 13.3134 39.9589 14.8062 41.0826C16.2991 42.2062 18.0407 43.1524 19.7823 43.8029C20.7775 44.1578 21.9593 43.6847 22.3325 42.7385C22.7057 41.7922 22.2081 40.6686 21.2129 40.3138C15.3038 38.1257 11.323 32.6258 11.323 26.6528C11.323 18.5508 18.2273 11.9865 26.7488 11.9865C35.2703 11.9865 42.1746 18.5508 42.1746 26.6528C42.1746 32.6849 38.1938 38.1848 32.2847 40.3138C31.2895 40.6686 30.7297 41.7922 31.1651 42.7385C31.4761 43.5073 32.2225 43.9212 33.0311 43.9212C33.2799 43.9212 33.5287 43.8621 33.7153 43.8029C35.5191 43.1524 37.1986 42.2062 38.6914 41.0826C40.1842 39.9589 41.4904 38.5988 42.6101 37.1203C43.7297 35.5827 44.6005 33.9268 45.1603 32.2118C45.7823 30.3785 46.0933 28.4861 46.0933 26.5937C46.1555 24.169 45.5957 21.7443 44.6005 19.4379Z" fill="white"/>
<path d="M26.7488 38.3622C25.6292 38.3622 24.7584 39.1901 24.7584 40.2546V46.2276C24.7584 47.2921 25.6292 48.12 26.7488 48.12C27.8684 48.12 28.7393 47.2921 28.7393 46.2276V40.2546C28.7393 39.1901 27.8684 38.3622 26.7488 38.3622Z" fill="white"/>
<defs>
<linearGradient id="paint0_linear" x1="20.0483" y1="68.7003" x2="20.0034" y2="77.808" gradientUnits="userSpaceOnUse">
<stop stop-color="#37D066"/>
<stop offset="1" stop-color="#76ED9B"/>
</linearGradient>
<linearGradient id="paint1_linear" x1="0.507651" y1="32.1608" x2="52.5054" y2="32.1608" gradientUnits="userSpaceOnUse">
<stop stop-color="#2829FF"/>
<stop offset="1" stop-color="#4876FF"/>
</linearGradient>
</defs>
</svg>
