<svg width="69" height="26" viewBox="0 0 69 26" fill="none" xmlns="http://www.w3.org/2000/svg">
<path fill-rule="evenodd" clip-rule="evenodd" d="M5.36667 5.10545H10.5417V0H5.36667V5.10545Z" fill="#B9B9B9"/>
<path fill-rule="evenodd" clip-rule="evenodd" d="M0 0H5.175V5.10545L0 0Z" fill="#B9B9B9"/>
<path fill-rule="evenodd" clip-rule="evenodd" d="M10.7333 5.10545H15.9083V0H10.7333V5.10545Z" fill="#B9B9B9"/>
<path fill-rule="evenodd" clip-rule="evenodd" d="M16.0521 5.10545H21.2271V0H16.0521V5.10545Z" fill="#B9B9B9"/>
<path fill-rule="evenodd" clip-rule="evenodd" d="M21.3708 0L26.5458 5.10545H21.3708V0Z" fill="#B9B9B9"/>
<path fill-rule="evenodd" clip-rule="evenodd" d="M21.3708 10.3998H26.5458V5.24707H21.3708V10.3998Z" fill="#B9B9B9"/>
<path fill-rule="evenodd" clip-rule="evenodd" d="M16.1958 15.6474H21.3708V10.4946H16.1958V15.6474Z" fill="#B9B9B9"/>
<path fill-rule="evenodd" clip-rule="evenodd" d="M21.3708 20.8002H26.5458V15.6475H21.3708V20.8002Z" fill="#B9B9B9"/>
<path fill-rule="evenodd" clip-rule="evenodd" d="M26.5458 20.7998H31.7208V25.9053H26.5458V20.7998Z" fill="#B9B9B9"/>
<path fill-rule="evenodd" clip-rule="evenodd" d="M5.36667 26H10.5417V20.8945H5.36667V26Z" fill="#B9B9B9"/>
<path fill-rule="evenodd" clip-rule="evenodd" d="M0.0958252 20.8945H5.27083V26L0.0958252 20.8945Z" fill="#B9B9B9"/>
<path fill-rule="evenodd" clip-rule="evenodd" d="M10.5417 20.8944H15.7167V15.7417H10.5417V20.8944Z" fill="#B9B9B9"/>
<path fill-rule="evenodd" clip-rule="evenodd" d="M0.0958252 20.7528H5.27083V15.6001H0.0958252V20.7528Z" fill="#B9B9B9"/>
<path fill-rule="evenodd" clip-rule="evenodd" d="M0.0958252 15.5054H5.27083V10.3999H0.0958252V15.5054Z" fill="#B9B9B9"/>
<path d="M38.6688 4.34912H41.5917C42.4063 4.34912 43.0292 4.58549 43.4604 5.01094C43.7958 5.34185 43.9875 5.86185 43.9875 6.47639C43.9875 7.46912 43.4125 8.13094 42.6458 8.41458L44.1792 10.6837H42.55L41.1604 8.65094H40.0583V10.6837H38.6688V4.34912ZM41.4958 7.42185C42.1667 7.42185 42.55 7.04367 42.55 6.52367C42.55 5.90912 42.1188 5.62548 41.4479 5.62548H40.0583V7.42185H41.4958Z" fill="#B9B9B9"/>
<path d="M45.2333 4.34912H50.025V5.57821H46.6229V6.85458H49.6417V8.08367H46.6229V9.4073H50.0729V10.6364H45.2333V4.34912Z" fill="#B9B9B9"/>
<path d="M51.0312 7.51621C51.0312 5.71985 52.3729 4.25439 54.3375 4.25439C55.5354 4.25439 56.2063 4.72712 56.7813 5.29439L55.9667 6.23985C55.4875 5.81439 55.0563 5.53076 54.3375 5.53076C53.2833 5.53076 52.5167 6.42894 52.5167 7.51621C52.5167 8.60348 53.2833 9.50167 54.3375 9.50167C55.0563 9.50167 55.4875 9.21803 56.0146 8.7453L56.925 9.69076C56.2542 10.3998 55.5354 10.778 54.3375 10.778C52.4208 10.778 51.0312 9.31258 51.0312 7.51621Z" fill="#B9B9B9"/>
<path d="M58.0271 4.34912H59.4167V6.85458H62.0042V4.34912H63.3938V10.6364H62.0042V8.13094H59.4167V10.6364H58.0271V4.34912Z" fill="#B9B9B9"/>
<path d="M65.0229 4.34912H66.4125V10.6364H65.0229V4.34912Z" fill="#B9B9B9"/>
<path d="M38.6688 15.1274H40.1542L41.8313 17.7747L43.5084 15.1274H45.0417V21.4147H43.6521V17.302L41.8792 19.9965H41.8313L40.0583 17.3493V21.4147H38.6688V15.1274Z" fill="#B9B9B9"/>
<path d="M46.575 15.1274H51.3667V16.3565H47.9646V17.6329H50.9833V18.9093H47.9646V20.2329H51.4146V21.462H46.575V15.1274Z" fill="#B9B9B9"/>
<path d="M52.6604 15.1274H55.1521C57.1646 15.1274 58.5542 16.4984 58.5542 18.2947C58.5542 20.0438 57.1646 21.462 55.1521 21.462H52.6604V15.1274ZM55.1042 20.1856C56.2542 20.1856 57.0208 19.4293 57.0208 18.2947C57.0208 17.1602 56.2542 16.4038 55.1042 16.4038H54.0021V20.1856H55.1042Z" fill="#B9B9B9"/>
<path d="M59.8 15.1274H61.1896V21.4147H59.8V15.1274Z" fill="#B9B9B9"/>
<path d="M64.975 15.0801H66.2687L69 21.4146H67.5146L66.9396 19.9964H64.2562L63.6812 21.4146H62.2437L64.975 15.0801ZM66.4604 18.8146L65.5979 16.7819L64.7354 18.8146H66.4604Z" fill="#B9B9B9"/>
</svg>
