<svg width="67" height="113" viewBox="0 0 67 113" fill="none" xmlns="http://www.w3.org/2000/svg">
<path d="M33.5 107.588C39.1655 107.588 43.7584 104.755 43.7584 101.261C43.7584 97.7659 39.1655 94.9329 33.5 94.9329C27.8345 94.9329 23.2416 97.7659 23.2416 101.261C23.2416 104.755 27.8345 107.588 33.5 107.588Z" fill="white" stroke="url(#paint0_linear)" stroke-width="3" stroke-miterlimit="10"/>
<path d="M33.5 0.75647C14.9868 0.75647 0 15.9593 0 34.6958C0 64.8549 31.1758 85.8924 32.5383 86.7963L33.5 87.4537L34.4617 86.7963C35.744 85.8924 67 64.7727 67 34.6958C67 16.0415 52.0132 0.75647 33.5 0.75647Z" fill="url(#paint1_linear)"/>
<path d="M40.6571 32.6663H26.3429V40.6855H40.6571V32.6663Z" fill="#FBFBFB"/>
<path d="M8.45386 33.9119V38.9418C8.45386 39.4527 8.80673 39.8685 9.24086 39.8685H10.3457V32.9852H9.24086C8.80673 32.9852 8.45386 33.401 8.45386 33.9119Z" fill="#FBFBFB"/>
<path d="M18.1501 25.5899V32.6662V40.6855V47.7618V51.177H24.3933V22.1747H18.1501V25.5899Z" fill="#FBFBFB"/>
<path d="M16.2009 42.9786V30.3732V25.9773H12.2954V47.3745H16.2009V42.9786Z" fill="#FBFBFB"/>
<path d="M57.7592 32.9852H56.6544V39.8679H57.7592C58.1933 39.8679 58.5462 39.4521 58.5462 38.9412V33.9114C58.5462 33.401 58.1933 32.9852 57.7592 32.9852Z" fill="#FBFBFB"/>
<path d="M48.85 22.1747H42.6068V51.177H48.85V47.7618V25.5899V22.1747Z" fill="#FBFBFB"/>
<path d="M54.7047 25.9773H50.7992V47.3751H54.7047V25.9773Z" fill="#FBFBFB"/>
<defs>
<linearGradient id="paint0_linear" x1="25.1872" y1="94.9329" x2="25.1199" y2="107.589" gradientUnits="userSpaceOnUse">
<stop stop-color="#37D066"/>
<stop offset="1" stop-color="#76ED9B"/>
</linearGradient>
<linearGradient id="paint1_linear" x1="0.00985766" y1="44.1575" x2="67.0069" y2="44.1575" gradientUnits="userSpaceOnUse">
<stop stop-color="#2829FF"/>
<stop offset="1" stop-color="#4876FF"/>
</linearGradient>
</defs>
</svg>
