<svg width="1613" height="966" viewBox="0 0 1613 966" fill="none" xmlns="http://www.w3.org/2000/svg">
<path d="M932.924 2280.35L-17.2852 1732.23C-57.554 1708.98 -57.554 1650.93 -17.2852 1627.76L516.641 1319.71C562.895 1293.04 562.895 1226.35 516.641 1199.68L343.168 1099.64C321.709 1087.25 295.29 1087.25 273.745 1099.64L134.984 1179.67C113.525 1192.07 87.1062 1192.07 65.561 1179.67L-17.7981 1131.53C-57.9814 1108.37 -58.067 1050.48 -18.0547 1027.14L478.082 737.909C499.627 725.341 526.217 725.341 547.762 737.738L721.063 837.683L790.486 877.696C811.946 890.093 838.365 890.093 859.824 877.696L959 820.584C992.002 801.604 992.002 753.982 959 734.917L403.785 418.807C357.532 392.132 357.532 325.444 403.785 298.77C450.039 272.095 450.039 205.407 403.785 178.732L299.736 118.714C253.482 92.0392 253.482 25.3524 299.736 -1.32251L792.124 -294.367C813.584 -306.764 840.003 -306.764 861.548 -294.367L1208.49 -94.22C1229.95 -81.823 1256.37 -81.823 1277.92 -94.22L1585.19 -271.625C1618.19 -290.691 1618.19 -338.227 1585.19 -357.207L584.71 -934.394C553.589 -952.348 553.589 -997.32 584.71 -1015.27L792.124 -1134.97C813.584 -1147.37 840.003 -1147.37 861.548 -1134.97L1208.49 -934.822C1229.95 -922.425 1256.37 -922.425 1277.92 -934.822L1375.38 -991.078C1409.15 -1010.57 1409.15 -1059.3 1375.38 -1078.8L759.55 -1434.04C736.979 -1447.03 709.107 -1446.35 687.22 -1432.24L561.882 -1351.45C539.995 -1337.34 512.123 -1336.66 489.552 -1349.65L260.849 -1481.57C234.858 -1496.53 234.858 -1533.98 260.849 -1548.94L584.026 -1735.41C605.485 -1747.81 631.904 -1747.81 653.449 -1735.41L1000.22 -1535.18C1021.68 -1522.78 1048.1 -1522.78 1069.65 -1535.18L1347.17 -1695.31C1393.42 -1721.99 1393.42 -1788.68 1347.17 -1815.35L774.769 -2145.62" stroke="#D3D3D3" stroke-width="6" stroke-miterlimit="10"/>
</svg>
