<svg width="83" height="87" viewBox="0 0 83 87" fill="none" xmlns="http://www.w3.org/2000/svg">
<path d="M32.2121 0.717041C23.9367 0.717041 17.2121 7.44164 17.2121 15.717V22.717H7.21207C6.12487 22.739 5.31333 23.6847 5.21207 24.5295L0.212069 84.5294C0.107869 85.6372 1.09939 86.7217 2.21207 86.7169H62.2121C63.3247 86.7169 64.3163 85.6372 64.2121 84.5294L64.0558 82.7169H60.0246H36.2121H4.39957L9.05582 26.717H17.2121V33.0607C14.8919 33.8924 13.2121 36.1267 13.2121 38.7169C13.2121 42.0069 15.922 44.7169 19.2121 44.7169C22.5021 44.7169 25.2121 42.0069 25.2121 38.7169C25.2121 36.1267 23.5322 33.8924 21.2121 33.0607V26.717H43.2121V30.717H47.2121V26.717H55.3683L55.7121 30.717H59.7121L59.2121 24.5295C59.1191 23.5463 58.1996 22.7127 57.2121 22.717H47.2121V15.717C47.2121 7.44164 40.4875 0.717041 32.2121 0.717041ZM32.2121 4.71704C38.3407 4.71704 43.2121 9.58844 43.2121 15.717V22.717H21.2121V15.717C21.2121 9.58844 26.0835 4.71704 32.2121 4.71704ZM38.2121 34.5294L34.2121 78.5294C34.1079 79.6372 35.0994 80.7217 36.2121 80.7169H80.2121C81.3247 80.7169 82.3163 79.6372 82.2121 78.5294L78.2121 34.5294C78.1191 33.5462 77.1996 32.7126 76.2121 32.7169H40.2121C39.1702 32.7169 38.3133 33.6846 38.2121 34.5294ZM19.2121 36.7169C20.3403 36.7169 21.2121 37.5887 21.2121 38.7169C21.2121 39.8451 20.3403 40.7169 19.2121 40.7169C18.0838 40.7169 17.2121 39.8451 17.2121 38.7169C17.2121 37.5887 18.0838 36.7169 19.2121 36.7169ZM42.0558 36.7169H74.3683L78.0246 76.7169H38.3996L42.0558 36.7169ZM48.2121 38.7169C47.1076 38.7169 46.2121 39.6123 46.2121 40.7169V44.7169C46.2121 51.3303 51.5986 56.7169 58.2121 56.7169C64.8255 56.7169 70.2121 51.3303 70.2121 44.7169V40.7169C70.2121 39.6123 69.3166 38.7169 68.2121 38.7169C67.1075 38.7169 66.2121 39.6123 66.2121 40.7169V44.7169C66.2121 49.1835 62.6786 52.7169 58.2121 52.7169C53.7455 52.7169 50.2121 49.1835 50.2121 44.7169V40.7169C50.2121 39.6123 49.3167 38.7169 48.2121 38.7169Z" fill="url(#paint0_linear)"/>
<defs>
<linearGradient id="paint0_linear" x1="0.204527" y1="91.9525" x2="64.8363" y2="0.717044" gradientUnits="userSpaceOnUse">
<stop stop-color="#2F30FF"/>
<stop offset="0.9999" stop-color="#4671FF"/>
<stop offset="1" stop-color="#4876FF" stop-opacity="0"/>
</linearGradient>
</defs>
</svg>
