<svg width="68" height="113" viewBox="0 0 68 113" fill="none" xmlns="http://www.w3.org/2000/svg">
<path d="M33.8926 107.088C39.5581 107.088 44.1509 104.255 44.1509 100.761C44.1509 97.2659 39.5581 94.4329 33.8926 94.4329C28.227 94.4329 23.6342 97.2659 23.6342 100.761C23.6342 104.255 28.227 107.088 33.8926 107.088Z" fill="white" stroke="url(#paint0_linear)" stroke-width="3" stroke-miterlimit="10"/>
<path d="M33.8925 0.25647C15.3794 0.25647 0.392548 15.4593 0.392548 34.1958C0.392548 64.3549 31.5684 85.3924 32.9308 86.2963L33.8925 86.9537L34.8543 86.2963C36.1366 85.3924 67.3925 64.2727 67.3925 34.1958C67.3925 15.5415 52.4057 0.25647 33.8925 0.25647Z" fill="url(#paint1_linear)"/>
<path fill-rule="evenodd" clip-rule="evenodd" d="M20.8746 19.8013L36.0496 35.3087L40.083 31.4067C39.226 29.155 39.066 27.1089 40.4344 25.519L47.2385 19.3162L48.1068 20.0439L43.8375 24.4623C43.4866 25.0017 44.235 25.8744 44.8372 25.4595L49.1763 20.9669L49.9864 21.5831L45.7258 26.0553C45.1653 26.5769 45.9685 27.8149 46.81 27.0916L51.1879 22.6866C51.5461 22.3177 52.1768 22.8255 51.9186 23.3293L47.4528 27.9729C47.1575 28.4724 47.8813 29.2878 48.4891 29.0161L52.8761 24.3768C53.2805 23.8622 54.0427 24.4961 53.6473 25.0585L47.9046 32.3284C45.8051 33.829 43.8078 34.1479 42.0402 32.912L38.0909 37.3248L52.695 52.3592L49.9299 55.1178L35.712 40.1541L22.0847 55.097L19.1122 52.1687L33.5918 37.7462L32.2282 36.1636C32.0454 35.9275 31.8609 36.0451 31.7592 36.1514C30.4417 37.7002 29.2101 37.6785 27.8857 36.7772L19.6093 28.179C16.4739 25.5858 17.4977 17.9323 20.8746 19.8013Z" fill="#FBFBFB"/>
<defs>
<linearGradient id="paint0_linear" x1="25.5797" y1="94.4329" x2="25.5124" y2="107.089" gradientUnits="userSpaceOnUse">
<stop stop-color="#37D066"/>
<stop offset="1" stop-color="#76ED9B"/>
</linearGradient>
<linearGradient id="paint1_linear" x1="0.402405" y1="43.6575" x2="67.3994" y2="43.6575" gradientUnits="userSpaceOnUse">
<stop stop-color="#2829FF"/>
<stop offset="1" stop-color="#4876FF"/>
</linearGradient>
</defs>
</svg>
